<?xml version="1.0" encoding="UTF-8"?>
<!DOCTYPE svg PUBLIC "-//W3C//DTD SVG 1.1//EN" "http://www.w3.org/Graphics/SVG/1.1/DTD/svg11.dtd">
<!-- Creator: CorelDRAW X8 -->
<svg xmlns="http://www.w3.org/2000/svg" xml:space="preserve" width="21cm" height="29.7cm" version="1.1" style="shape-rendering:geometricPrecision; text-rendering:geometricPrecision; image-rendering:optimizeQuality; fill-rule:evenodd; clip-rule:evenodd"
viewBox="0 0 21000 29700"
 xmlns:xlink="http://www.w3.org/1999/xlink">
 <defs>
  <style type="text/css">
   <![CDATA[
    .str0 {stroke:#EE6352;stroke-width:200;stroke-linecap:round}
    .str1 {stroke:#FAC05E;stroke-width:200;stroke-linecap:round}
    .fil0 {fill:none}
    .fil2 {fill:#FEFEFE;fill-rule:nonzero}
    .fil3 {fill:#332C2B;fill-rule:nonzero}
    .fil4 {fill:#36AE8E;fill-rule:nonzero}
    .fil1 {fill:url(#id0)}
   ]]>
  </style>
  <linearGradient id="id0" gradientUnits="userSpaceOnUse" x1="7229.24" y1="10464.2" x2="8872.76" y2="9196.53">
   <stop offset="0" style="stop-opacity:1; stop-color:#59CD90"/>
   <stop offset="1" style="stop-opacity:1; stop-color:#2176AE"/>
  </linearGradient>
 </defs>
 <g id="Layer_x0020_1">
  <metadata id="CorelCorpID_0Corel-Layer"/>
  <g id="_789753264">
   <g>
    <path class="fil0 str0" d="M6954 11318c-471,-165 -787,-610 -787,-1109"/>
    <path class="fil0 str1" d="M7732 11318c471,-165 787,-610 787,-1109"/>
   </g>
   <path class="fil1" d="M6703 9430l1032 0c69,0 126,57 126,127l0 1282c0,70 -64,96 -126,127l-400 195 -554 -274 -89 -60c-58,-38 -115,-142 -115,-211l0 -1059c0,-70 57,-127 126,-127zm248 -224l1032 0c69,0 126,57 126,127l0 1265c0,69 -57,126 -126,126l-20 0 0 -1245c0,-70 -57,-127 -126,-127l-1012 0 0 -19c0,-70 57,-127 126,-127z"/>
   <path class="fil2" d="M7174 10124l129 74 -41 71 -128 -74c-4,-2 -8,-4 -12,-4 -5,-1 -9,0 -13,1l-2 0c-4,1 -7,3 -10,5 -3,3 -6,6 -8,10l-147 255c-3,3 -4,8 -4,12 -1,3 -1,7 0,10l1 3c1,4 3,8 5,11 3,3 6,6 10,8l129 75c4,2 8,4 12,4 4,1 9,0 13,-1l2 0c4,-1 7,-3 10,-5 3,-3 6,-6 8,-10l79 -136 70 40 -78 137c-8,13 -18,25 -30,33 -12,10 -25,16 -40,20 -14,4 -29,5 -44,3 -15,-2 -29,-6 -43,-14l-129 -75c-13,-8 -25,-18 -34,-29 -9,-12 -15,-26 -19,-40 -4,-15 -5,-30 -3,-45 2,-14 6,-29 14,-42l147 -255c8,-13 18,-24 30,-33 12,-9 25,-16 40,-20 14,-4 29,-5 44,-3 15,2 29,7 42,14zm15 274l-124 -72 35 -61 124 72c5,2 10,4 14,4 5,1 10,1 15,-1l2 0c4,-2 8,-4 12,-6 3,-3 7,-7 9,-11l147 -255c3,-5 5,-9 5,-14 1,-4 1,-9 0,-13l-1 -2c-1,-5 -3,-9 -6,-13 -3,-4 -7,-8 -11,-10l-130 -75c-4,-2 -9,-4 -14,-5 -5,0 -10,0 -15,1l-2 1c-4,1 -8,3 -11,6 -4,3 -7,7 -10,11l-76 132 -62 -36 77 -131c7,-13 17,-24 28,-32 11,-9 24,-15 38,-19 14,-4 28,-5 42,-3 14,2 28,6 41,14l129 74c13,8 24,17 32,28 9,12 15,25 19,39 3,13 4,28 3,42 -2,14 -7,28 -14,40l-147 255c-7,13 -17,24 -28,32 -12,9 -25,15 -38,19 -14,4 -29,5 -43,3 -14,-2 -27,-7 -40,-14z"/>
  </g>
  <path class="fil3" d="M9359 9593l97 0 195 507 -100 0 -40 -104 -208 0 -40 104 -100 0 196 -507zm48 135l-68 174 137 0 -69 -174z"/>
  <path id="1" class="fil3" d="M9945 9778l-59 59c-23,-24 -44,-35 -64,-35 -10,0 -18,2 -24,6 -6,5 -9,10 -9,17 0,5 1,10 5,14 4,4 13,10 28,17l35 17c36,18 61,36 74,55 14,18 21,40 21,65 0,33 -13,61 -37,83 -25,22 -57,33 -99,33 -54,0 -98,-21 -130,-64l58 -63c11,13 24,24 38,31 15,8 28,12 40,12 12,0 22,-3 30,-9 8,-6 11,-12 11,-20 0,-15 -13,-29 -41,-42l-31 -16c-61,-31 -91,-69 -91,-115 0,-29 11,-54 34,-75 23,-21 52,-32 87,-32 25,0 48,6 69,16 21,11 40,26 55,46z"/>
  <path id="2" class="fil3" d="M10255 9778l-58 59c-24,-24 -45,-35 -64,-35 -11,0 -19,2 -25,6 -6,5 -9,10 -9,17 0,5 2,10 6,14 3,4 13,10 28,17l34 17c36,18 61,36 75,55 13,18 20,40 20,65 0,33 -12,61 -37,83 -24,22 -57,33 -98,33 -55,0 -98,-21 -131,-64l58 -63c11,13 24,24 39,31 15,8 28,12 39,12 13,0 23,-3 30,-9 8,-6 12,-12 12,-20 0,-15 -14,-29 -41,-42l-32 -16c-61,-31 -91,-69 -91,-115 0,-29 12,-54 34,-75 23,-21 52,-32 88,-32 24,0 47,6 69,16 21,11 39,26 54,46z"/>
  <path id="3" class="fil3" d="M10373 9572c17,0 31,6 43,17 12,12 17,27 17,44 0,16 -5,31 -17,42 -12,12 -26,18 -42,18 -17,0 -31,-6 -43,-18 -12,-12 -17,-27 -17,-44 0,-16 5,-30 17,-42 12,-12 26,-17 42,-17zm-47 153l94 0 0 375 -94 0 0 -375z"/>
  <path id="4" class="fil3" d="M10735 9778l-59 59c-23,-24 -44,-35 -64,-35 -10,0 -18,2 -24,6 -6,5 -9,10 -9,17 0,5 1,10 5,14 4,4 13,10 28,17l35 17c36,18 61,36 74,55 14,18 21,40 21,65 0,33 -13,61 -37,83 -25,22 -57,33 -99,33 -54,0 -98,-21 -130,-64l58 -63c11,13 24,24 38,31 15,8 28,12 40,12 12,0 22,-3 30,-9 8,-6 11,-12 11,-20 0,-15 -13,-29 -41,-42l-31 -16c-61,-31 -91,-69 -91,-115 0,-29 11,-54 34,-75 23,-21 52,-32 87,-32 25,0 48,6 69,16 21,11 40,26 55,46z"/>
  <polygon id="5" class="fil3" points="10827,9587 10921,9587 10921,9725 10977,9725 10977,9807 10921,9807 10921,10100 10827,10100 10827,9807 10779,9807 10779,9725 10827,9725 "/>
  <path id="6" class="fil3" d="M11305 9725l93 0 0 375 -93 0 0 -40c-19,18 -37,30 -56,38 -18,7 -38,11 -60,11 -48,0 -90,-18 -126,-56 -35,-37 -53,-84 -53,-140 0,-57 17,-105 52,-142 34,-36 75,-55 124,-55 23,0 44,4 64,13 19,8 38,21 55,38l0 -42zm-99 77c-30,0 -54,11 -73,31 -19,21 -29,47 -29,79 0,32 10,59 30,80 19,21 43,31 72,31 29,0 54,-10 73,-31 20,-20 30,-47 30,-80 0,-33 -10,-59 -30,-79 -19,-21 -44,-31 -73,-31z"/>
  <path id="7" class="fil3" d="M11493 9725l94 0 0 39c21,-18 41,-30 58,-37 17,-7 35,-11 53,-11 37,0 69,13 95,39 21,22 32,55 32,98l0 247 -93 0 0 -164c0,-44 -2,-74 -6,-89 -4,-14 -11,-26 -21,-33 -10,-8 -22,-12 -37,-12 -19,0 -35,7 -49,19 -13,13 -23,31 -28,53 -3,12 -4,37 -4,76l0 150 -94 0 0 -375z"/>
  <polygon id="8" class="fil3" points="11928,9587 12022,9587 12022,9725 12077,9725 12077,9807 12022,9807 12022,10100 11928,10100 11928,9807 11880,9807 11880,9725 11928,9725 "/>
  <polygon class="fil4" points="9217,10243 9351,10243 9351,10824 9550,10824 9550,10953 9217,10953 "/>
  <path id="1" class="fil4" d="M9691 10212c23,0 42,8 59,25 17,17 25,37 25,61 0,23 -8,43 -25,59 -16,17 -36,25 -59,25 -23,0 -43,-8 -59,-25 -17,-17 -25,-37 -25,-61 0,-23 8,-43 24,-59 16,-17 36,-25 60,-25zm-67 216l132 0 0 525 -132 0 0 -525z"/>
  <path id="2" class="fil4" d="M9875 10428l132 0 0 54c30,-25 57,-43 81,-53 24,-9 49,-14 75,-14 52,0 96,18 132,54 31,31 46,77 46,137l0 347 -130 0 0 -230c0,-62 -3,-104 -9,-124 -5,-21 -15,-37 -29,-47 -14,-11 -31,-17 -52,-17 -27,0 -50,9 -69,27 -19,18 -32,43 -39,74 -4,16 -6,52 -6,106l0 211 -132 0 0 -525z"/>
  <polygon id="3" class="fil4" points="10470,10225 10601,10225 10601,10644 10796,10428 10960,10428 10735,10678 10989,10953 10825,10953 10601,10711 10601,10953 10470,10953 "/>
 </g>
</svg>
